<?xml version="1.0" encoding="utf-8"?>
<!-- Generator: Adobe Illustrator 19.2.1, SVG Export Plug-In . SVG Version: 6.00 Build 0)  -->
<svg version="1.1" id="layer" xmlns="http://www.w3.org/2000/svg" xmlns:xlink="http://www.w3.org/1999/xlink" x="0px" y="0px"
	 viewBox="0 0 652 652" style="enable-background:new 0 0 652 652;" xml:space="preserve">
<style type="text/css">
	.st0{fill:#FF4422;}
</style>
<path class="st0" d="M330.1,393.7h-54.5v-47.3c0-6.4-2.7-11.8-6.4-16.4l-20.9-20.9c-4.5-3.6-10-6.4-16.4-6.4H221v90.9h-54.5V248.3
	h79.1c11.8,0,23.6,4.5,31.8,13.6l39.1,39.1c9.1,8.2,13.6,20,13.6,31.8V393.7z M566.5,248.3v47.3c0,6.4-2.7,11.8-6.4,16.4l-20.9,20.9
	c-4.5,4.5-10,6.4-16.4,6.4h-22.7c7.3-8.2,11.8-19.1,11.8-30v-60.9h-54.5v47.3c0,6.4-2.7,11.8-6.4,16.4l-20.9,20.9
	c-4.5,4.5-10,6.4-16.4,6.4h-10.9v-90.9h-54.5v145.5h79.1c11.8,0,23.6-4.5,31.8-13.6l25.5-25.5v39.1h51.8c11.8,0,23.6-4.5,31.8-13.6
	l39.1-39.1c9.1-8.2,13.6-20,13.6-31.8v-60.9H566.5z M148.3,248.3H21v54.5h36.4v90.9h54.5v-90.9h36.4V248.3z"/>
</svg>
