<svg width="24" height="27" fill="#fff" xmlns="http://www.w3.org/2000/svg">
 <g>
  <title>background</title>
  <rect fill="none" id="canvas_background" height="29" width="26" y="-1" x="-1"/>
 </g>
 <g>
  <title>Layer 1</title>
  <path stroke="null" id="svg_1" d="m12.640796,0.131031c-7.453635,0 -11.212272,5.231245 -11.212272,9.594554c0,2.641403 1.021542,4.991166 3.212206,5.866084c0.35935,0.145014 0.681394,0.005371 0.785633,-0.384018c0.072419,-0.268544 0.244139,-0.948499 0.320398,-1.232619c0.104788,-0.385093 0.064189,-0.519365 -0.226034,-0.85612c-0.631469,-0.72883 -1.035806,-1.673032 -1.035806,-3.011457c0,-3.881004 2.966422,-7.355431 7.724107,-7.355431c4.2129,0 6.527554,2.520021 6.527554,5.884882c0,4.428834 -2.001937,8.166435 -4.973296,8.166435c-1.641489,0 -2.869315,-1.328221 -2.476498,-2.958285c0.47127,-1.945873 1.384732,-4.044816 1.384732,-5.450377c0,-1.256788 -0.689623,-2.305185 -2.115502,-2.305185c-1.677699,0 -3.025673,1.699349 -3.025673,3.974994c0,1.449603 0.500347,2.430327 0.500347,2.430327s-1.716651,7.121797 -2.017847,8.368918c-0.5991,2.484036 -0.089975,5.528255 -0.046633,5.83547c0.025237,0.18261 0.264438,0.226651 0.373066,0.089157c0.154164,-0.198186 2.153358,-2.612937 2.832008,-5.026614c0.192568,-0.68264 1.103287,-4.220981 1.103287,-4.220981c0.545334,1.01832 2.138545,1.91311 3.832702,1.91311c5.042423,0 8.464204,-4.500267 8.464204,-10.524255c0.000549,-4.556124 -3.940782,-8.798589 -9.930682,-8.798589z"/>
 </g>
</svg>